<svg xmlns="http://www.w3.org/2000/svg" xmlns:xlink="http://www.w3.org/1999/xlink" width="500" zoomAndPan="magnify" viewBox="0 0 375 374.999991" height="500" preserveAspectRatio="xMidYMid meet" version="1.0"><path fill="#231f20" d="M 314.238281 243.34375 C 314.796875 245.714844 315.09375 248.191406 315.09375 250.734375 C 315.09375 268.484375 300.707031 282.871094 282.957031 282.871094 C 265.890625 282.871094 251.925781 269.566406 250.882812 252.761719 L 261.730469 251.152344 C 261.953125 262.667969 271.390625 271.96875 282.957031 271.96875 C 294.660156 271.96875 304.1875 262.441406 304.1875 250.734375 C 304.1875 248.730469 303.90625 246.792969 303.390625 244.953125 Z M 314.238281 243.34375 " fill-opacity="1" fill-rule="nonzero"/><path fill="#231f20" d="M 92.136719 242.449219 C 93.730469 241.425781 95.621094 240.832031 97.652344 240.832031 C 100.546875 240.832031 103.160156 242.035156 105.019531 243.964844 C 106.171875 245.164062 107.035156 246.640625 107.492188 248.285156 C 107.738281 249.164062 107.871094 250.089844 107.871094 251.046875 C 107.871094 256.691406 103.296875 261.265625 97.652344 261.265625 C 92.011719 261.265625 87.4375 256.691406 87.4375 251.046875 C 87.4375 250.089844 87.570312 249.164062 87.816406 248.285156 C 88.496094 245.851562 90.058594 243.78125 92.136719 242.449219 Z M 92.136719 242.449219 " fill-opacity="1" fill-rule="nonzero"/><path fill="#231f20" d="M 272.773438 251.046875 C 272.773438 250.519531 272.8125 249.996094 272.890625 249.492188 L 292.195312 246.621094 C 292.453125 247.152344 292.664062 247.707031 292.828125 248.285156 C 293.070312 249.167969 293.203125 250.089844 293.203125 251.046875 C 293.203125 256.691406 288.632812 261.265625 282.988281 261.265625 C 277.34375 261.265625 272.773438 256.691406 272.773438 251.046875 Z M 272.773438 251.046875 " fill-opacity="1" fill-rule="nonzero"/><path fill="#231f20" d="M 77.230469 197.007812 C 77.082031 184.066406 79.804688 173.105469 89.152344 171.914062 C 113.144531 168.863281 158.082031 166.679688 155.898438 182.386719 C 153.71875 198.089844 134.523438 215.976562 139.320312 224.546875 C 144.121094 233.113281 212.613281 232.554688 223.082031 226.449219 C 233.550781 220.339844 246.203125 176.714844 236.605469 149.660156 C 233.265625 140.238281 232.257812 131.992188 232.351562 125.234375 L 221.988281 125.234375 C 220.949219 126.4375 219.414062 127.199219 217.703125 127.199219 L 198.214844 127.199219 C 195.085938 127.199219 192.542969 124.660156 192.542969 121.527344 C 192.542969 118.394531 195.085938 115.855469 198.214844 115.855469 L 217.703125 115.855469 C 219.414062 115.855469 220.949219 116.617188 221.988281 117.820312 L 233.1875 117.820312 C 234.101562 114.707031 235.84375 111.96875 238.15625 109.839844 C 238.925781 109.132812 239.753906 108.496094 240.640625 107.933594 C 242.320312 98.734375 248.125 92.128906 255.222656 92.128906 C 263.675781 92.128906 270.292969 101.5 270.292969 113.457031 C 270.292969 123.691406 265.449219 132.027344 258.75 134.21875 C 262.207031 138.746094 266.785156 143.84375 272.816406 149.527344 C 294.035156 169.523438 297.457031 194.097656 297.242188 208.90625 C 306.898438 212.917969 314.585938 221.078125 317.761719 231.492188 C 318.59375 234.210938 316.800781 237.03125 313.992188 237.449219 L 312.335938 237.695312 L 300.894531 239.394531 L 294.769531 240.304688 L 280.382812 242.445312 L 262.484375 245.109375 L 251.054688 246.804688 L 249.394531 247.050781 C 246.601562 247.46875 244.054688 245.320312 244.054688 242.496094 C 244.054688 242.480469 244.054688 242.460938 244.054688 242.445312 L 128.300781 242.445312 C 129.066406 245.179688 129.476562 248.066406 129.476562 251.046875 C 129.476562 268.621094 115.230469 282.871094 97.652344 282.871094 C 80.078125 282.871094 65.832031 268.621094 65.832031 251.046875 C 65.832031 248.066406 66.242188 245.179688 67.007812 242.445312 L 66.589844 242.445312 C 63.019531 242.445312 59.824219 240.179688 58.6875 236.789062 C 57.613281 233.601562 57.035156 230.191406 57.035156 226.640625 C 57.03125 213.167969 65.40625 201.648438 77.230469 197.007812 Z M 252.78125 125.066406 C 253.574219 125.773438 254.410156 126.160156 255.222656 126.160156 C 258.265625 126.160156 261.671875 120.722656 261.671875 113.457031 C 261.671875 106.1875 258.265625 100.753906 255.222656 100.753906 C 252.222656 100.753906 248.871094 106.035156 248.777344 113.148438 C 248.773438 113.25 248.773438 113.351562 248.773438 113.457031 C 248.773438 118.785156 250.605469 123.128906 252.78125 125.066406 Z M 97.652344 272.042969 C 109.230469 272.042969 118.648438 262.625 118.648438 251.046875 C 118.648438 247.988281 117.992188 245.074219 116.808594 242.445312 L 116.484375 242.445312 C 116.539062 242.34375 116.601562 242.234375 116.660156 242.132812 C 113.300781 235 106.042969 230.054688 97.652344 230.054688 C 91.996094 230.054688 86.855469 232.300781 83.078125 235.953125 C 81.167969 237.796875 79.609375 239.996094 78.503906 242.445312 C 77.316406 245.074219 76.660156 247.988281 76.660156 251.046875 C 76.660156 262.625 86.078125 272.042969 97.652344 272.042969 Z M 97.652344 272.042969 " fill-opacity="1" fill-rule="nonzero"/><path fill="#231f20" d="M 206.011719 224.0625 C 199.695312 224.695312 191.484375 225.148438 181.703125 225.148438 C 160.78125 225.148438 147.820312 222.992188 144.417969 221.289062 C 144.433594 220.75 144.617188 219.589844 145.535156 217.457031 C 146.734375 214.683594 148.683594 211.394531 150.773438 207.898438 C 163.035156 216.980469 182.054688 214.9375 192.542969 215.644531 C 200.226562 216.167969 204.082031 220.1875 206.011719 224.0625 Z M 206.011719 224.0625 " fill-opacity="1" fill-rule="nonzero"/><path fill="#231f20" d="M 86.191406 166.519531 L 90.527344 160.613281 C 93.308594 156.828125 97.601562 154.453125 102.28125 154.109375 C 110.128906 153.53125 122.683594 153.066406 132.738281 154.8125 C 141.894531 156.40625 146.226562 162.25 148.253906 166.90625 C 141.757812 164.878906 132.859375 163.878906 121.429688 163.878906 C 107.859375 163.878906 94.917969 165.269531 88.410156 166.097656 C 87.679688 166.191406 86.9375 166.328125 86.191406 166.519531 Z M 86.191406 166.519531 " fill-opacity="1" fill-rule="nonzero"/></svg>